<svg width="48" height="48" viewBox="0 0 48 48" fill="none" xmlns="http://www.w3.org/2000/svg">
<rect width="48" height="48" rx="24" fill="white"/>
<g clip-path="url(#clip0_49_294)">
<path d="M35.0624 24.2763C35.0624 23.4605 35 22.6404 34.8667 21.8379H24.1768V26.4589H30.2984C30.0444 27.9492 29.2281 29.2676 28.033 30.1054V33.1037H31.6851C33.8298 31.0137 35.0624 27.9272 35.0624 24.2763Z" fill="#4285F4"/>
<path d="M24.1771 36.0008C27.2337 36.0008 29.8115 34.9382 31.6896 33.1039L28.0374 30.1055C27.0213 30.8375 25.7096 31.252 24.1812 31.252C21.2245 31.252 18.7176 29.1399 17.8181 26.3003H14.0493V29.3912C15.9733 33.4434 19.8919 36.0008 24.1771 36.0008Z" fill="#34A853"/>
<path d="M17.8139 26.3005C17.3392 24.8101 17.3392 23.1963 17.8139 21.7059V18.615H14.0493C12.4419 22.0058 12.4419 26.0006 14.0493 29.3914L17.8139 26.3005Z" fill="#FBBC04"/>
<path d="M24.1771 16.7497C25.7928 16.7232 27.3545 17.367 28.5247 18.5487L31.7604 15.1226C29.7115 13.0855 26.9922 11.9655 24.1771 12.0008C19.8919 12.0008 15.9733 14.5582 14.0493 18.6148L17.8139 21.7058C18.7092 18.8617 21.2204 16.7497 24.1771 16.7497Z" fill="#EA4335"/>
</g>
<defs>
<clipPath id="clip0_49_294">
<rect width="22.6667" height="24" fill="white" transform="translate(12.6665 12)"/>
</clipPath>
</defs>
</svg>
